<svg width="400" height="400" viewBox="0 0 400 400" fill="none" xmlns="http://www.w3.org/2000/svg">
<g clip-path="url(#clip0_8806_377)">
<path d="M200 0C89.4766 0 0 89.9789 0 200C0 310.27 89.7563 400 200 400C310.68 400 400 309.795 400 200C400 89.7688 310.295 0 200 0ZM373.899 198.931L348.881 173.913L367.955 154.839C371.744 168.917 373.807 183.694 373.899 198.931ZM358.17 127.732L330.435 155.467L296.707 121.739L331.793 86.6523C342.401 98.9695 351.313 112.784 358.17 127.732ZM313.347 68.2063L278.261 103.293L244.533 69.5648L272.267 41.8297C287.215 48.6867 301.03 57.5984 313.347 68.2063ZM245.161 32.0461L226.087 51.1195L201.069 26.1016C216.306 26.193 231.083 28.2563 245.161 32.0461ZM26.0867 200C26.0867 170.179 33.6352 142.09 46.9156 117.535L103.294 173.913L32.0461 245.16C28.168 230.752 26.0867 215.616 26.0867 200ZM41.8305 272.267L121.739 192.359L155.468 226.087L68.207 313.347C57.5992 301.03 48.6867 287.215 41.8305 272.267ZM86.6531 331.793L173.913 244.532L207.642 278.261L127.732 358.17C112.784 351.313 98.9695 342.401 86.6531 331.793ZM200 373.913C184.384 373.913 169.247 371.832 154.839 367.954L226.087 296.706L282.464 353.084C257.91 366.364 229.821 373.913 200 373.913ZM304.895 338.623L61.3773 95.1055C71.0281 82.3836 82.3844 71.0273 95.1055 61.3773L338.623 304.895C328.973 317.616 317.616 328.972 304.895 338.623ZM353.084 282.463L117.537 46.9156C132.878 38.618 149.604 32.5687 167.266 29.1906L370.81 232.734C367.432 250.397 361.383 267.122 353.084 282.463Z" fill="white"/>
</g>
<defs>
<clipPath id="clip0_8806_377">
<rect width="400" height="400" fill="white"/>
</clipPath>
</defs>
</svg>
