<svg width="24" height="24" viewBox="0 0 24 24" fill="none" xmlns="http://www.w3.org/2000/svg">
<g clip-path="url(#clip0_8862_384)">
<path d="M12 0C5.36859 0 0 5.39873 0 12C0 18.6162 5.38538 24 12 24C18.6408 24 24 18.5877 24 12C24 5.38613 18.6177 0 12 0ZM22.434 11.9359L20.9329 10.4348L22.0773 9.29034C22.3046 10.135 22.4284 11.0216 22.434 11.9359ZM21.4902 7.66392L19.8261 9.32803L17.8024 7.30434L19.9076 5.19914C20.544 5.93817 21.0788 6.76706 21.4902 7.66392ZM18.8008 4.09238L16.6957 6.19758L14.672 4.17389L16.336 2.50978C17.2329 2.9212 18.0618 3.45591 18.8008 4.09238ZM14.7097 1.92277L13.5652 3.06717L12.0641 1.56609C12.9784 1.57158 13.865 1.69538 14.7097 1.92277ZM1.5652 12C1.5652 10.2107 2.01811 8.52539 2.81494 7.05211L6.19763 10.4348L1.92277 14.7096C1.69008 13.8451 1.5652 12.9369 1.5652 12ZM2.50983 16.336L7.30434 11.5415L9.32808 13.5652L4.09242 18.8008C3.45595 18.0618 2.9212 17.2329 2.50983 16.336ZM5.19919 19.9076L10.4348 14.6719L12.4585 16.6957L7.66392 21.4902C6.76706 21.0788 5.93817 20.544 5.19919 19.9076ZM12 22.4348C11.0631 22.4348 10.1548 22.3099 9.29034 22.0772L13.5652 17.8024L16.9478 21.185C15.4746 21.9818 13.7893 22.4348 12 22.4348ZM18.2937 20.3174L3.68264 5.70633C4.26169 4.94302 4.94306 4.26164 5.70633 3.68264L20.3174 18.2937C19.7384 19.0569 19.057 19.7383 18.2937 20.3174ZM21.1851 16.9478L7.0522 2.81494C7.97269 2.31708 8.97623 1.95412 10.036 1.75144L22.2486 13.9641C22.0459 15.0238 21.683 16.0273 21.1851 16.9478Z" fill="#C580DD"/>
</g>
<defs>
<clipPath id="clip0_8862_384">
<rect width="24" height="24" fill="white"/>
</clipPath>
</defs>
</svg>
